<mxfile host="app.diagrams.net" modified="2024-04-29T21:02:19.112Z" agent="Mozilla/5.0 (Windows NT 10.0; Win64; x64) AppleWebKit/537.36 (KHTML, like Gecko) Chrome/124.0.0.0 Safari/537.36" etag="XLEaRGPfxO1I5ebwW6V9" version="24.3.1" type="device" pages="2">
  <diagram name="FLUJO DE PLANEACION: ADMINISTRADOR" id="13e1069c-82ec-6db2-03f1-153e76fe0fe0">
    <mxGraphModel dx="1221" dy="608" grid="1" gridSize="10" guides="1" tooltips="1" connect="1" arrows="1" fold="1" page="1" pageScale="1" pageWidth="1100" pageHeight="850" background="none" math="0" shadow="0">
      <root>
        <mxCell id="0" />
        <mxCell id="1" parent="0" />
        <mxCell id="UffUeTkuu_cGfvTDTMv0-4" value="redirige a pagina formulario" style="html=1;verticalAlign=bottom;endArrow=block;curved=0;rounded=0;exitX=0.002;exitY=0.161;exitDx=0;exitDy=0;exitPerimeter=0;" parent="1" target="7baba1c4bc27f4b0-9" edge="1">
          <mxGeometry width="80" relative="1" as="geometry">
            <mxPoint x="318.8900000000001" y="210.07000000000002" as="sourcePoint" />
            <mxPoint x="70" y="210" as="targetPoint" />
          </mxGeometry>
        </mxCell>
        <mxCell id="7baba1c4bc27f4b0-2" value="vista" style="shape=umlLifeline;perimeter=lifelinePerimeter;whiteSpace=wrap;html=1;container=1;collapsible=0;recursiveResize=0;outlineConnect=0;rounded=1;shadow=0;comic=0;labelBackgroundColor=none;strokeWidth=1;fontFamily=Verdana;fontSize=12;align=center;" parent="1" vertex="1">
          <mxGeometry x="270" y="80" width="100" height="580" as="geometry" />
        </mxCell>
        <mxCell id="7baba1c4bc27f4b0-10" value="" style="html=1;points=[];perimeter=orthogonalPerimeter;rounded=0;shadow=0;comic=0;labelBackgroundColor=none;strokeWidth=1;fontFamily=Verdana;fontSize=12;align=center;" parent="7baba1c4bc27f4b0-2" vertex="1">
          <mxGeometry x="45" y="100" width="10" height="460" as="geometry" />
        </mxCell>
        <mxCell id="UffUeTkuu_cGfvTDTMv0-9" value="validar datos" style="html=1;verticalAlign=bottom;endArrow=block;rounded=0;edgeStyle=elbowEdgeStyle;exitX=1.015;exitY=0.106;exitDx=0;exitDy=0;exitPerimeter=0;entryX=1.133;entryY=0.227;entryDx=0;entryDy=0;entryPerimeter=0;" parent="7baba1c4bc27f4b0-2" edge="1">
          <mxGeometry x="0.2116" y="35" width="80" relative="1" as="geometry">
            <mxPoint x="55" y="250.00000000000006" as="sourcePoint" />
            <mxPoint x="56.17999999999995" y="303.23999999999995" as="targetPoint" />
            <Array as="points">
              <mxPoint x="95" y="290" />
            </Array>
            <mxPoint as="offset" />
          </mxGeometry>
        </mxCell>
        <mxCell id="7baba1c4bc27f4b0-3" value="controlador" style="shape=umlLifeline;perimeter=lifelinePerimeter;whiteSpace=wrap;html=1;container=1;collapsible=0;recursiveResize=0;outlineConnect=0;rounded=1;shadow=0;comic=0;labelBackgroundColor=none;strokeWidth=1;fontFamily=Verdana;fontSize=12;align=center;" parent="1" vertex="1">
          <mxGeometry x="630" y="80" width="100" height="580" as="geometry" />
        </mxCell>
        <mxCell id="7baba1c4bc27f4b0-13" value="" style="html=1;points=[];perimeter=orthogonalPerimeter;rounded=0;shadow=0;comic=0;labelBackgroundColor=none;strokeWidth=1;fontFamily=Verdana;fontSize=12;align=center;" parent="7baba1c4bc27f4b0-3" vertex="1">
          <mxGeometry x="45" y="330" width="10" height="200" as="geometry" />
        </mxCell>
        <mxCell id="UffUeTkuu_cGfvTDTMv0-17" value="validar datos: middleware" style="html=1;verticalAlign=bottom;endArrow=block;rounded=0;edgeStyle=elbowEdgeStyle;exitX=1.015;exitY=0.106;exitDx=0;exitDy=0;exitPerimeter=0;entryX=1.133;entryY=0.227;entryDx=0;entryDy=0;entryPerimeter=0;" parent="7baba1c4bc27f4b0-3" edge="1">
          <mxGeometry x="0.0601" y="65" width="80" relative="1" as="geometry">
            <mxPoint x="55" y="350.00000000000006" as="sourcePoint" />
            <mxPoint x="56.17999999999995" y="403.23999999999995" as="targetPoint" />
            <Array as="points">
              <mxPoint x="95" y="390" />
            </Array>
            <mxPoint as="offset" />
          </mxGeometry>
        </mxCell>
        <mxCell id="UffUeTkuu_cGfvTDTMv0-24" value="OK 200&lt;div&gt;response: &quot;id y data&quot;&lt;/div&gt;" style="html=1;verticalAlign=bottom;endArrow=block;curved=0;rounded=0;" parent="7baba1c4bc27f4b0-3" edge="1">
          <mxGeometry width="80" relative="1" as="geometry">
            <mxPoint x="45" y="530" as="sourcePoint" />
            <mxPoint x="-300" y="530" as="targetPoint" />
          </mxGeometry>
        </mxCell>
        <mxCell id="7baba1c4bc27f4b0-4" value="modelo" style="shape=umlLifeline;perimeter=lifelinePerimeter;whiteSpace=wrap;html=1;container=1;collapsible=0;recursiveResize=0;outlineConnect=0;rounded=1;shadow=0;comic=0;labelBackgroundColor=none;strokeWidth=1;fontFamily=Verdana;fontSize=12;align=center;" parent="1" vertex="1">
          <mxGeometry x="910" y="80" width="100" height="580" as="geometry" />
        </mxCell>
        <mxCell id="7baba1c4bc27f4b0-16" value="" style="html=1;points=[];perimeter=orthogonalPerimeter;rounded=0;shadow=0;comic=0;labelBackgroundColor=none;strokeWidth=1;fontFamily=Verdana;fontSize=12;align=center;" parent="7baba1c4bc27f4b0-4" vertex="1">
          <mxGeometry x="45" y="430" width="10" height="90" as="geometry" />
        </mxCell>
        <mxCell id="UffUeTkuu_cGfvTDTMv0-18" value="insertar data en tabla plan y cronograma" style="html=1;verticalAlign=bottom;endArrow=block;curved=0;rounded=0;exitX=0.983;exitY=0.501;exitDx=0;exitDy=0;exitPerimeter=0;" parent="7baba1c4bc27f4b0-4" source="7baba1c4bc27f4b0-13" edge="1">
          <mxGeometry width="80" relative="1" as="geometry">
            <mxPoint x="-260" y="430" as="sourcePoint" />
            <mxPoint x="45" y="430" as="targetPoint" />
          </mxGeometry>
        </mxCell>
        <mxCell id="UffUeTkuu_cGfvTDTMv0-19" value="&lt;div&gt;- insertar data&amp;nbsp;&lt;/div&gt;" style="html=1;verticalAlign=bottom;endArrow=block;rounded=0;edgeStyle=elbowEdgeStyle;exitX=1.015;exitY=0.106;exitDx=0;exitDy=0;exitPerimeter=0;entryX=1.133;entryY=0.227;entryDx=0;entryDy=0;entryPerimeter=0;" parent="7baba1c4bc27f4b0-4" edge="1">
          <mxGeometry x="0.2116" y="45" width="80" relative="1" as="geometry">
            <mxPoint x="55" y="440" as="sourcePoint" />
            <mxPoint x="56.17999999999995" y="493.24" as="targetPoint" />
            <Array as="points">
              <mxPoint x="95" y="480" />
            </Array>
            <mxPoint as="offset" />
          </mxGeometry>
        </mxCell>
        <mxCell id="7baba1c4bc27f4b0-8" value="usuario&lt;div&gt;administrador&lt;/div&gt;" style="shape=umlLifeline;perimeter=lifelinePerimeter;whiteSpace=wrap;html=1;container=1;collapsible=0;recursiveResize=0;outlineConnect=0;rounded=1;shadow=0;comic=0;labelBackgroundColor=none;strokeWidth=1;fontFamily=Verdana;fontSize=12;align=center;" parent="1" vertex="1">
          <mxGeometry x="10" y="80" width="100" height="580" as="geometry" />
        </mxCell>
        <mxCell id="7baba1c4bc27f4b0-9" value="" style="html=1;points=[];perimeter=orthogonalPerimeter;rounded=0;shadow=0;comic=0;labelBackgroundColor=none;strokeWidth=1;fontFamily=Verdana;fontSize=12;align=center;" parent="7baba1c4bc27f4b0-8" vertex="1">
          <mxGeometry x="45" y="100" width="10" height="440" as="geometry" />
        </mxCell>
        <mxCell id="UffUeTkuu_cGfvTDTMv0-7" value="llena&amp;nbsp;&lt;div&gt;formulario&lt;/div&gt;" style="html=1;verticalAlign=bottom;endArrow=block;rounded=0;edgeStyle=elbowEdgeStyle;exitX=1.015;exitY=0.106;exitDx=0;exitDy=0;exitPerimeter=0;entryX=1.133;entryY=0.227;entryDx=0;entryDy=0;entryPerimeter=0;" parent="7baba1c4bc27f4b0-8" edge="1">
          <mxGeometry x="0.2116" y="35" width="80" relative="1" as="geometry">
            <mxPoint x="55.00000000000003" y="150.00000000000006" as="sourcePoint" />
            <mxPoint x="56.17999999999998" y="203.23999999999995" as="targetPoint" />
            <Array as="points">
              <mxPoint x="95" y="190" />
            </Array>
            <mxPoint as="offset" />
          </mxGeometry>
        </mxCell>
        <mxCell id="7baba1c4bc27f4b0-11" value="&lt;font style=&quot;font-size: 11px;&quot;&gt;click &quot;crear plan&quot;&lt;/font&gt;" style="html=1;verticalAlign=bottom;endArrow=block;labelBackgroundColor=none;fontFamily=Verdana;fontSize=12;edgeStyle=elbowEdgeStyle;elbow=vertical;" parent="1" source="7baba1c4bc27f4b0-9" target="7baba1c4bc27f4b0-10" edge="1">
          <mxGeometry x="0.0008" relative="1" as="geometry">
            <mxPoint x="220" y="190" as="sourcePoint" />
            <Array as="points">
              <mxPoint x="310" y="180" />
            </Array>
            <mxPoint as="offset" />
          </mxGeometry>
        </mxCell>
        <mxCell id="7baba1c4bc27f4b0-41" value="frontend" style="shape=note;whiteSpace=wrap;html=1;size=14;verticalAlign=top;align=left;spacingTop=-6;rounded=0;shadow=0;comic=0;labelBackgroundColor=none;strokeWidth=1;fontFamily=Verdana;fontSize=12" parent="1" vertex="1">
          <mxGeometry x="270" y="30" width="100" height="35" as="geometry" />
        </mxCell>
        <mxCell id="7baba1c4bc27f4b0-42" value="backend" style="shape=note;whiteSpace=wrap;html=1;size=14;verticalAlign=top;align=left;spacingTop=-6;rounded=0;shadow=0;comic=0;labelBackgroundColor=none;strokeWidth=1;fontFamily=Verdana;fontSize=12" parent="1" vertex="1">
          <mxGeometry x="630" y="30" width="100" height="35" as="geometry" />
        </mxCell>
        <mxCell id="7baba1c4bc27f4b0-43" value="backend" style="shape=note;whiteSpace=wrap;html=1;size=14;verticalAlign=top;align=left;spacingTop=-6;rounded=0;shadow=0;comic=0;labelBackgroundColor=none;strokeWidth=1;fontFamily=Verdana;fontSize=12" parent="1" vertex="1">
          <mxGeometry x="910" y="30" width="100" height="35" as="geometry" />
        </mxCell>
        <mxCell id="UffUeTkuu_cGfvTDTMv0-8" value="click &quot;guardar&quot;" style="html=1;verticalAlign=bottom;endArrow=block;curved=0;rounded=0;exitX=1.046;exitY=0.296;exitDx=0;exitDy=0;exitPerimeter=0;" parent="1" source="7baba1c4bc27f4b0-9" edge="1">
          <mxGeometry width="80" relative="1" as="geometry">
            <mxPoint x="70" y="310" as="sourcePoint" />
            <mxPoint x="310" y="310" as="targetPoint" />
          </mxGeometry>
        </mxCell>
        <mxCell id="UffUeTkuu_cGfvTDTMv0-16" value="&quot;POST&quot;: guardar data" style="html=1;verticalAlign=bottom;endArrow=block;curved=0;rounded=0;" parent="1" target="7baba1c4bc27f4b0-13" edge="1">
          <mxGeometry width="80" relative="1" as="geometry">
            <mxPoint x="330" y="410" as="sourcePoint" />
            <mxPoint x="500" y="410" as="targetPoint" />
          </mxGeometry>
        </mxCell>
        <mxCell id="UffUeTkuu_cGfvTDTMv0-20" value="&lt;font style=&quot;&quot;&gt;-&lt;/font&gt;&lt;font style=&quot;font-size: 11px;&quot;&gt;plan&lt;/font&gt;&lt;div&gt;&lt;span style=&quot;background-color: rgb(255, 255, 255); font-family: Helvetica; font-size: 11px; text-align: center; text-wrap: nowrap;&quot;&gt;&lt;span style=&quot;white-space: pre;&quot;&gt;&#x9;&lt;/span&gt;etapa: APERTURA&lt;/span&gt;&lt;/div&gt;&lt;div&gt;&lt;span style=&quot;background-color: rgb(255, 255, 255); font-family: Helvetica; font-size: 11px; text-align: center; text-wrap: nowrap;&quot;&gt;-cronograma&lt;/span&gt;&lt;/div&gt;&lt;div&gt;&lt;span style=&quot;background-color: rgb(255, 255, 255); font-family: Helvetica; font-size: 11px; text-align: center; text-wrap: nowrap;&quot;&gt;&lt;span style=&quot;white-space: pre;&quot;&gt;&#x9;&lt;/span&gt;fecha_inicio_real: null&lt;/span&gt;&lt;/div&gt;&lt;div&gt;&lt;span style=&quot;background-color: rgb(255, 255, 255); font-family: Helvetica; font-size: 11px; text-align: center; text-wrap: nowrap;&quot;&gt;&lt;span style=&quot;white-space: pre;&quot;&gt;&#x9;&lt;/span&gt;fecha_fin_real: null&lt;/span&gt;&lt;/div&gt;&lt;div&gt;&lt;br&gt;&lt;/div&gt;" style="shape=note;whiteSpace=wrap;html=1;size=14;verticalAlign=top;align=left;spacingTop=-6;rounded=0;shadow=0;comic=0;labelBackgroundColor=none;strokeWidth=1;fontFamily=Verdana;fontSize=12" parent="1" vertex="1">
          <mxGeometry x="1100" y="520" width="140" height="90" as="geometry" />
        </mxCell>
        <mxCell id="UffUeTkuu_cGfvTDTMv0-22" value="&lt;font style=&quot;&quot;&gt;-&lt;/font&gt;&lt;font style=&quot;font-size: 11px;&quot;&gt;plan*&lt;/font&gt;&lt;div&gt;&lt;span style=&quot;background-color: rgb(255, 255, 255); font-family: Helvetica; font-size: 11px; text-align: center; text-wrap: nowrap;&quot;&gt;&lt;span style=&quot;white-space: pre;&quot;&gt;&#x9;&lt;/span&gt;titulo&lt;/span&gt;&lt;/div&gt;&lt;div&gt;&lt;span style=&quot;background-color: rgb(255, 255, 255); font-family: Helvetica; font-size: 11px; text-align: center; text-wrap: nowrap;&quot;&gt;&lt;span style=&quot;white-space: pre;&quot;&gt;&#x9;&lt;/span&gt;id_administrador&lt;br&gt;&lt;/span&gt;&lt;/div&gt;&lt;div&gt;&lt;span style=&quot;background-color: rgb(255, 255, 255); font-family: Helvetica; font-size: 11px; text-align: center; text-wrap: nowrap;&quot;&gt;&lt;span style=&quot;white-space: pre;&quot;&gt;&#x9;&lt;/span&gt;gestion&lt;br&gt;&lt;/span&gt;&lt;/div&gt;&lt;div&gt;&lt;span style=&quot;background-color: rgb(255, 255, 255); font-family: Helvetica; font-size: 11px; text-align: center; text-wrap: nowrap;&quot;&gt;&lt;span style=&quot;white-space: pre;&quot;&gt;&#x9;&lt;/span&gt;objetivos&lt;br&gt;&lt;/span&gt;&lt;/div&gt;&lt;div&gt;&lt;span style=&quot;background-color: rgb(255, 255, 255); font-family: Helvetica; font-size: 11px; text-align: center; text-wrap: nowrap;&quot;&gt;-cronograma&lt;/span&gt;&lt;/div&gt;&lt;div&gt;&lt;span style=&quot;background-color: rgb(255, 255, 255); font-family: Helvetica; font-size: 11px; text-align: center; text-wrap: nowrap;&quot;&gt;&lt;span style=&quot;white-space: pre;&quot;&gt;&#x9;&lt;/span&gt;fecha_inicio_plan&lt;/span&gt;&lt;/div&gt;&lt;div&gt;&lt;span style=&quot;background-color: rgb(255, 255, 255); font-family: Helvetica; font-size: 11px; text-align: center; text-wrap: nowrap;&quot;&gt;&lt;span style=&quot;white-space: pre;&quot;&gt;&#x9;&lt;/span&gt;fecha_fin_plan&lt;/span&gt;&lt;/div&gt;&lt;div&gt;&lt;span style=&quot;background-color: rgb(255, 255, 255); font-family: Helvetica; font-size: 11px; text-align: center; text-wrap: nowrap;&quot;&gt;-participantes&lt;/span&gt;&lt;/div&gt;&lt;div&gt;&lt;span style=&quot;background-color: rgb(255, 255, 255); font-family: Helvetica; font-size: 11px; text-align: center; text-wrap: nowrap;&quot;&gt;&lt;span style=&quot;white-space: pre;&quot;&gt;&#x9;&lt;/span&gt;rol: responsable &amp;gt; 0&lt;br&gt;&lt;/span&gt;&lt;/div&gt;&lt;div&gt;&lt;span style=&quot;background-color: rgb(255, 255, 255); font-family: Helvetica; font-size: 11px; text-align: center; text-wrap: nowrap;&quot;&gt;&lt;span style=&quot;white-space: pre;&quot;&gt;&#x9;&lt;/span&gt;tipo: planificador&lt;br&gt;&lt;/span&gt;&lt;/div&gt;&lt;div&gt;&lt;span style=&quot;background-color: rgb(255, 255, 255); font-family: Helvetica; font-size: 11px; text-align: center; text-wrap: nowrap;&quot;&gt;&lt;br&gt;&lt;/span&gt;&lt;/div&gt;&lt;div&gt;&lt;span style=&quot;background-color: rgb(255, 255, 255); font-family: Helvetica; font-size: 11px; text-align: center; text-wrap: nowrap;&quot;&gt;&lt;br&gt;&lt;/span&gt;&lt;/div&gt;" style="shape=note;whiteSpace=wrap;html=1;size=14;verticalAlign=top;align=left;spacingTop=-6;rounded=0;shadow=0;comic=0;labelBackgroundColor=none;strokeWidth=1;fontFamily=Verdana;fontSize=12" parent="1" vertex="1">
          <mxGeometry x="450" y="190" width="140" height="180" as="geometry" />
        </mxCell>
        <mxCell id="UffUeTkuu_cGfvTDTMv0-23" value="ok" style="html=1;verticalAlign=bottom;endArrow=block;curved=0;rounded=0;exitX=-0.038;exitY=1;exitDx=0;exitDy=0;exitPerimeter=0;entryX=1.013;entryY=0.95;entryDx=0;entryDy=0;entryPerimeter=0;" parent="1" source="7baba1c4bc27f4b0-16" target="7baba1c4bc27f4b0-13" edge="1">
          <mxGeometry x="-0.0019" width="80" relative="1" as="geometry">
            <mxPoint x="950" y="600" as="sourcePoint" />
            <mxPoint x="690" y="600" as="targetPoint" />
            <mxPoint as="offset" />
          </mxGeometry>
        </mxCell>
        <mxCell id="UffUeTkuu_cGfvTDTMv0-25" value="muestra plan creado" style="html=1;verticalAlign=bottom;endArrow=block;curved=0;rounded=0;" parent="1" edge="1">
          <mxGeometry width="80" relative="1" as="geometry">
            <mxPoint x="310" y="620" as="sourcePoint" />
            <mxPoint x="70" y="620" as="targetPoint" />
          </mxGeometry>
        </mxCell>
      </root>
    </mxGraphModel>
  </diagram>
  <diagram id="WwGOlJFqhBe0w1i6KH3g" name="FLUJO PLANEACION: PLANIFICADOR">
    <mxGraphModel dx="1163" dy="579" grid="1" gridSize="10" guides="1" tooltips="1" connect="1" arrows="1" fold="1" page="1" pageScale="1" pageWidth="827" pageHeight="1169" math="0" shadow="0">
      <root>
        <mxCell id="0" />
        <mxCell id="1" parent="0" />
        <mxCell id="rwDVkkAhV9fPD90_3vev-1" value="usuario&lt;div&gt;auditor&lt;/div&gt;" style="shape=umlLifeline;perimeter=lifelinePerimeter;whiteSpace=wrap;html=1;container=1;collapsible=0;recursiveResize=0;outlineConnect=0;rounded=1;shadow=0;comic=0;labelBackgroundColor=none;strokeWidth=1;fontFamily=Verdana;fontSize=12;align=center;" parent="1" vertex="1">
          <mxGeometry x="40" y="40" width="100" height="2450" as="geometry" />
        </mxCell>
        <mxCell id="rwDVkkAhV9fPD90_3vev-2" value="" style="html=1;points=[];perimeter=orthogonalPerimeter;rounded=0;shadow=0;comic=0;labelBackgroundColor=none;strokeWidth=1;fontFamily=Verdana;fontSize=12;align=center;" parent="rwDVkkAhV9fPD90_3vev-1" vertex="1">
          <mxGeometry x="45" y="100" width="10" height="2290" as="geometry" />
        </mxCell>
        <mxCell id="c6XgG6ySSTw-OyYYgiz0-1" value="click &quot;crear actividad&quot;" style="html=1;verticalAlign=bottom;endArrow=block;curved=0;rounded=0;" parent="rwDVkkAhV9fPD90_3vev-1" edge="1">
          <mxGeometry width="80" relative="1" as="geometry">
            <mxPoint x="60" y="400" as="sourcePoint" />
            <mxPoint x="270" y="400" as="targetPoint" />
          </mxGeometry>
        </mxCell>
        <mxCell id="c6XgG6ySSTw-OyYYgiz0-5" value="ingresar datos" style="html=1;verticalAlign=bottom;endArrow=block;rounded=0;edgeStyle=elbowEdgeStyle;exitX=1.015;exitY=0.106;exitDx=0;exitDy=0;exitPerimeter=0;entryX=1.133;entryY=0.227;entryDx=0;entryDy=0;entryPerimeter=0;" parent="rwDVkkAhV9fPD90_3vev-1" edge="1">
          <mxGeometry x="0.2116" y="45" width="80" relative="1" as="geometry">
            <mxPoint x="55" y="460.00000000000006" as="sourcePoint" />
            <mxPoint x="56.17999999999995" y="513.24" as="targetPoint" />
            <Array as="points">
              <mxPoint x="95" y="500" />
            </Array>
            <mxPoint as="offset" />
          </mxGeometry>
        </mxCell>
        <mxCell id="c6XgG6ySSTw-OyYYgiz0-6" value="click &quot;guardar&quot;" style="html=1;verticalAlign=bottom;endArrow=block;curved=0;rounded=0;" parent="rwDVkkAhV9fPD90_3vev-1" edge="1">
          <mxGeometry width="80" relative="1" as="geometry">
            <mxPoint x="55" y="530" as="sourcePoint" />
            <mxPoint x="270" y="530" as="targetPoint" />
          </mxGeometry>
        </mxCell>
        <mxCell id="0E8X6CepLbDXRwvv__vK-2" value="click &quot;abrir actividad&quot;" style="html=1;verticalAlign=bottom;endArrow=block;curved=0;rounded=0;" parent="rwDVkkAhV9fPD90_3vev-1" edge="1">
          <mxGeometry width="80" relative="1" as="geometry">
            <mxPoint x="60" y="860" as="sourcePoint" />
            <mxPoint x="270" y="860" as="targetPoint" />
          </mxGeometry>
        </mxCell>
        <mxCell id="20uPW2bGxjTTq03wj-o7-2" value="ingresar datos" style="html=1;verticalAlign=bottom;endArrow=block;rounded=0;edgeStyle=elbowEdgeStyle;exitX=1.198;exitY=0.271;exitDx=0;exitDy=0;exitPerimeter=0;" parent="rwDVkkAhV9fPD90_3vev-1" edge="1">
          <mxGeometry x="0.19" y="42" width="80" relative="1" as="geometry">
            <mxPoint x="55.000000000000014" y="1060" as="sourcePoint" />
            <mxPoint x="55.019999999999996" y="1083.0900000000001" as="targetPoint" />
            <Array as="points">
              <mxPoint x="88.02" y="1073.0900000000001" />
            </Array>
            <mxPoint as="offset" />
          </mxGeometry>
        </mxCell>
        <mxCell id="20uPW2bGxjTTq03wj-o7-3" value="Click &quot;Guardar auditoria&quot;" style="html=1;verticalAlign=bottom;endArrow=block;curved=0;rounded=0;" parent="rwDVkkAhV9fPD90_3vev-1" edge="1">
          <mxGeometry width="80" relative="1" as="geometry">
            <mxPoint x="60" y="1100" as="sourcePoint" />
            <mxPoint x="270" y="1100" as="targetPoint" />
          </mxGeometry>
        </mxCell>
        <mxCell id="HzBQnUoR9m-qY79LxDmp-13" value="Click &quot;Agregar Check&quot;" style="html=1;verticalAlign=bottom;endArrow=block;curved=0;rounded=0;" parent="rwDVkkAhV9fPD90_3vev-1" edge="1">
          <mxGeometry width="80" relative="1" as="geometry">
            <mxPoint x="60" y="1740" as="sourcePoint" />
            <mxPoint x="270" y="1740" as="targetPoint" />
          </mxGeometry>
        </mxCell>
        <mxCell id="HzBQnUoR9m-qY79LxDmp-15" value="Mostrar formulario de checks" style="html=1;verticalAlign=bottom;endArrow=none;curved=0;rounded=0;startArrow=block;startFill=1;endFill=0;" parent="rwDVkkAhV9fPD90_3vev-1" edge="1">
          <mxGeometry width="80" relative="1" as="geometry">
            <mxPoint x="60" y="1770" as="sourcePoint" />
            <mxPoint x="270" y="1770" as="targetPoint" />
          </mxGeometry>
        </mxCell>
        <mxCell id="HzBQnUoR9m-qY79LxDmp-17" value="ingresar datos" style="html=1;verticalAlign=bottom;endArrow=block;rounded=0;edgeStyle=elbowEdgeStyle;exitX=1.198;exitY=0.271;exitDx=0;exitDy=0;exitPerimeter=0;" parent="rwDVkkAhV9fPD90_3vev-1" edge="1">
          <mxGeometry x="0.19" y="42" width="80" relative="1" as="geometry">
            <mxPoint x="65.00000000000001" y="1780" as="sourcePoint" />
            <mxPoint x="65.02" y="1803.0900000000001" as="targetPoint" />
            <Array as="points">
              <mxPoint x="98.01999999999998" y="1793.0900000000001" />
            </Array>
            <mxPoint as="offset" />
          </mxGeometry>
        </mxCell>
        <mxCell id="qSnqgkX1vYPYsh4ckFBg-1" value="vista" style="shape=umlLifeline;perimeter=lifelinePerimeter;whiteSpace=wrap;html=1;container=1;collapsible=0;recursiveResize=0;outlineConnect=0;rounded=1;shadow=0;comic=0;labelBackgroundColor=none;strokeWidth=1;fontFamily=Verdana;fontSize=12;align=center;" parent="1" vertex="1">
          <mxGeometry x="270" y="40" width="100" height="2450" as="geometry" />
        </mxCell>
        <mxCell id="qSnqgkX1vYPYsh4ckFBg-2" value="" style="html=1;points=[];perimeter=orthogonalPerimeter;rounded=0;shadow=0;comic=0;labelBackgroundColor=none;strokeWidth=1;fontFamily=Verdana;fontSize=12;align=center;" parent="qSnqgkX1vYPYsh4ckFBg-1" vertex="1">
          <mxGeometry x="45" y="100" width="10" height="2290" as="geometry" />
        </mxCell>
        <mxCell id="c6XgG6ySSTw-OyYYgiz0-9" value="Formatear datos" style="html=1;verticalAlign=bottom;endArrow=block;rounded=0;edgeStyle=elbowEdgeStyle;exitX=1.015;exitY=0.106;exitDx=0;exitDy=0;exitPerimeter=0;entryX=1.133;entryY=0.227;entryDx=0;entryDy=0;entryPerimeter=0;" parent="qSnqgkX1vYPYsh4ckFBg-1" edge="1">
          <mxGeometry x="0.2116" y="35" width="80" relative="1" as="geometry">
            <mxPoint x="55" y="540" as="sourcePoint" />
            <mxPoint x="56.17999999999995" y="593.24" as="targetPoint" />
            <Array as="points">
              <mxPoint x="95" y="580" />
            </Array>
            <mxPoint as="offset" />
          </mxGeometry>
        </mxCell>
        <mxCell id="20uPW2bGxjTTq03wj-o7-8" value="Formatear y validar&amp;nbsp;&lt;div&gt;datos&lt;/div&gt;" style="html=1;verticalAlign=bottom;endArrow=block;rounded=0;edgeStyle=elbowEdgeStyle;exitX=1.198;exitY=0.271;exitDx=0;exitDy=0;exitPerimeter=0;" parent="qSnqgkX1vYPYsh4ckFBg-1" edge="1">
          <mxGeometry x="0.2593" y="52" width="80" relative="1" as="geometry">
            <mxPoint x="55" y="1110" as="sourcePoint" />
            <mxPoint x="55.01999999999998" y="1133.0900000000001" as="targetPoint" />
            <Array as="points">
              <mxPoint x="88.01999999999998" y="1123.0900000000001" />
            </Array>
            <mxPoint x="52" y="-45" as="offset" />
          </mxGeometry>
        </mxCell>
        <mxCell id="qSnqgkX1vYPYsh4ckFBg-4" value="modelo" style="shape=umlLifeline;perimeter=lifelinePerimeter;whiteSpace=wrap;html=1;container=1;collapsible=0;recursiveResize=0;outlineConnect=0;rounded=1;shadow=0;comic=0;labelBackgroundColor=none;strokeWidth=1;fontFamily=Verdana;fontSize=12;align=center;" parent="1" vertex="1">
          <mxGeometry x="700" y="40" width="100" height="2380" as="geometry" />
        </mxCell>
        <mxCell id="qSnqgkX1vYPYsh4ckFBg-5" value="" style="html=1;points=[];perimeter=orthogonalPerimeter;rounded=0;shadow=0;comic=0;labelBackgroundColor=none;strokeWidth=1;fontFamily=Verdana;fontSize=12;align=center;" parent="qSnqgkX1vYPYsh4ckFBg-4" vertex="1">
          <mxGeometry x="45" y="200" width="10" height="100" as="geometry" />
        </mxCell>
        <mxCell id="nTu8nTeAyjdF6Tatln3D-1" value="&lt;div&gt;- insertar data&amp;nbsp;&lt;/div&gt;" style="html=1;verticalAlign=bottom;endArrow=block;rounded=0;edgeStyle=elbowEdgeStyle;exitX=1.015;exitY=0.106;exitDx=0;exitDy=0;exitPerimeter=0;entryX=1.133;entryY=0.227;entryDx=0;entryDy=0;entryPerimeter=0;" parent="qSnqgkX1vYPYsh4ckFBg-4" edge="1">
          <mxGeometry x="0.0601" y="45" width="80" relative="1" as="geometry">
            <mxPoint x="55" y="220" as="sourcePoint" />
            <mxPoint x="56.17999999999995" y="273.24" as="targetPoint" />
            <Array as="points">
              <mxPoint x="95" y="260" />
            </Array>
            <mxPoint as="offset" />
          </mxGeometry>
        </mxCell>
        <mxCell id="Hk00ESmYUxV_dqD9_Td8-3" value="" style="html=1;points=[];perimeter=orthogonalPerimeter;rounded=0;shadow=0;comic=0;labelBackgroundColor=none;strokeWidth=1;fontFamily=Verdana;fontSize=12;align=center;" parent="qSnqgkX1vYPYsh4ckFBg-4" vertex="1">
          <mxGeometry x="45" y="710" width="10" height="70" as="geometry" />
        </mxCell>
        <mxCell id="Hk00ESmYUxV_dqD9_Td8-5" value="&lt;div&gt;insertar data&amp;nbsp;&lt;/div&gt;" style="html=1;verticalAlign=bottom;endArrow=block;rounded=0;edgeStyle=elbowEdgeStyle;exitX=1.198;exitY=0.271;exitDx=0;exitDy=0;exitPerimeter=0;" parent="qSnqgkX1vYPYsh4ckFBg-4" edge="1">
          <mxGeometry x="0.19" y="42" width="80" relative="1" as="geometry">
            <mxPoint x="55.00000000000002" y="719.9999999999999" as="sourcePoint" />
            <mxPoint x="55.02" y="743.09" as="targetPoint" />
            <Array as="points">
              <mxPoint x="88.02" y="733.09" />
            </Array>
            <mxPoint as="offset" />
          </mxGeometry>
        </mxCell>
        <mxCell id="0E8X6CepLbDXRwvv__vK-7" value="" style="html=1;points=[];perimeter=orthogonalPerimeter;rounded=0;shadow=0;comic=0;labelBackgroundColor=none;strokeWidth=1;fontFamily=Verdana;fontSize=12;align=center;" parent="qSnqgkX1vYPYsh4ckFBg-4" vertex="1">
          <mxGeometry x="45" y="930" width="10" height="30" as="geometry" />
        </mxCell>
        <mxCell id="0E8X6CepLbDXRwvv__vK-11" value="DATA" style="html=1;verticalAlign=bottom;endArrow=none;curved=0;rounded=0;startArrow=block;startFill=1;endFill=0;" parent="qSnqgkX1vYPYsh4ckFBg-4" edge="1">
          <mxGeometry width="80" relative="1" as="geometry">
            <mxPoint x="-150" y="960" as="sourcePoint" />
            <mxPoint x="40" y="960" as="targetPoint" />
          </mxGeometry>
        </mxCell>
        <mxCell id="x1FIQMdPufeVAxIoaQDV-2" value="" style="html=1;points=[];perimeter=orthogonalPerimeter;rounded=0;shadow=0;comic=0;labelBackgroundColor=none;strokeWidth=1;fontFamily=Verdana;fontSize=12;align=center;" parent="qSnqgkX1vYPYsh4ckFBg-4" vertex="1">
          <mxGeometry x="45" y="1250" width="10" height="80" as="geometry" />
        </mxCell>
        <mxCell id="x1FIQMdPufeVAxIoaQDV-4" value="CREAR&amp;nbsp;&lt;div&gt;en tabla auditoria y cronograma&lt;/div&gt;" style="html=1;verticalAlign=bottom;endArrow=block;curved=0;rounded=0;" parent="qSnqgkX1vYPYsh4ckFBg-4" edge="1">
          <mxGeometry width="80" relative="1" as="geometry">
            <mxPoint x="-150" y="1250" as="sourcePoint" />
            <mxPoint x="40" y="1250" as="targetPoint" />
          </mxGeometry>
        </mxCell>
        <mxCell id="x1FIQMdPufeVAxIoaQDV-6" value="&lt;div&gt;insertar data&amp;nbsp;&lt;/div&gt;" style="html=1;verticalAlign=bottom;endArrow=block;rounded=0;edgeStyle=elbowEdgeStyle;exitX=1.198;exitY=0.271;exitDx=0;exitDy=0;exitPerimeter=0;" parent="qSnqgkX1vYPYsh4ckFBg-4" edge="1">
          <mxGeometry x="0.19" y="42" width="80" relative="1" as="geometry">
            <mxPoint x="55.000000000000014" y="1268.45" as="sourcePoint" />
            <mxPoint x="55.019999999999996" y="1291.5400000000002" as="targetPoint" />
            <Array as="points">
              <mxPoint x="88.02" y="1281.5400000000002" />
            </Array>
            <mxPoint as="offset" />
          </mxGeometry>
        </mxCell>
        <mxCell id="HzBQnUoR9m-qY79LxDmp-8" value="&lt;div&gt;insertar data&amp;nbsp;&lt;/div&gt;" style="html=1;verticalAlign=bottom;endArrow=block;rounded=0;edgeStyle=elbowEdgeStyle;exitX=1.198;exitY=0.271;exitDx=0;exitDy=0;exitPerimeter=0;" parent="qSnqgkX1vYPYsh4ckFBg-4" edge="1">
          <mxGeometry x="0.19" y="42" width="80" relative="1" as="geometry">
            <mxPoint x="55" y="1570" as="sourcePoint" />
            <mxPoint x="55.01999999999998" y="1593.0900000000001" as="targetPoint" />
            <Array as="points">
              <mxPoint x="88.01999999999998" y="1583.0900000000001" />
            </Array>
            <mxPoint as="offset" />
          </mxGeometry>
        </mxCell>
        <mxCell id="HzBQnUoR9m-qY79LxDmp-5" value="" style="html=1;points=[];perimeter=orthogonalPerimeter;rounded=0;shadow=0;comic=0;labelBackgroundColor=none;strokeWidth=1;fontFamily=Verdana;fontSize=12;align=center;" parent="qSnqgkX1vYPYsh4ckFBg-4" vertex="1">
          <mxGeometry x="45" y="1550" width="10" height="100" as="geometry" />
        </mxCell>
        <mxCell id="HzBQnUoR9m-qY79LxDmp-6" value="ACTUALIZAR y CREAR" style="html=1;verticalAlign=bottom;endArrow=block;curved=0;rounded=0;" parent="qSnqgkX1vYPYsh4ckFBg-4" edge="1">
          <mxGeometry width="80" relative="1" as="geometry">
            <mxPoint x="-155" y="1550" as="sourcePoint" />
            <mxPoint x="45" y="1550" as="targetPoint" />
          </mxGeometry>
        </mxCell>
        <mxCell id="HzBQnUoR9m-qY79LxDmp-10" value="OK y DATA" style="html=1;verticalAlign=bottom;endArrow=block;curved=0;rounded=0;" parent="qSnqgkX1vYPYsh4ckFBg-4" edge="1">
          <mxGeometry width="80" relative="1" as="geometry">
            <mxPoint x="40" y="1650" as="sourcePoint" />
            <mxPoint x="-150" y="1650" as="targetPoint" />
          </mxGeometry>
        </mxCell>
        <mxCell id="PQzdDY-kdReBMIUdHJ6F-1" value="" style="html=1;points=[];perimeter=orthogonalPerimeter;rounded=0;shadow=0;comic=0;labelBackgroundColor=none;strokeWidth=1;fontFamily=Verdana;fontSize=12;align=center;" vertex="1" parent="qSnqgkX1vYPYsh4ckFBg-4">
          <mxGeometry x="45" y="1910" width="10" height="100" as="geometry" />
        </mxCell>
        <mxCell id="PQzdDY-kdReBMIUdHJ6F-4" value="CREAR en tabla checks y&amp;nbsp;&lt;div&gt;ACTUALIZAR en aprobacion&lt;/div&gt;" style="html=1;verticalAlign=bottom;endArrow=block;curved=0;rounded=0;" edge="1" parent="qSnqgkX1vYPYsh4ckFBg-4">
          <mxGeometry x="-0.0015" width="80" relative="1" as="geometry">
            <mxPoint x="-150" y="1910" as="sourcePoint" />
            <mxPoint x="40" y="1910" as="targetPoint" />
            <mxPoint as="offset" />
          </mxGeometry>
        </mxCell>
        <mxCell id="PQzdDY-kdReBMIUdHJ6F-13" value="" style="html=1;points=[];perimeter=orthogonalPerimeter;rounded=0;shadow=0;comic=0;labelBackgroundColor=none;strokeWidth=1;fontFamily=Verdana;fontSize=12;align=center;" vertex="1" parent="qSnqgkX1vYPYsh4ckFBg-4">
          <mxGeometry x="45" y="2190" width="10" height="130" as="geometry" />
        </mxCell>
        <mxCell id="PQzdDY-kdReBMIUdHJ6F-14" value="&lt;div&gt;- insertar data&amp;nbsp;&lt;/div&gt;" style="html=1;verticalAlign=bottom;endArrow=block;rounded=0;edgeStyle=elbowEdgeStyle;exitX=1.015;exitY=0.106;exitDx=0;exitDy=0;exitPerimeter=0;entryX=1.133;entryY=0.227;entryDx=0;entryDy=0;entryPerimeter=0;" edge="1" parent="qSnqgkX1vYPYsh4ckFBg-4">
          <mxGeometry x="0.0601" y="45" width="80" relative="1" as="geometry">
            <mxPoint x="55" y="2210" as="sourcePoint" />
            <mxPoint x="56.17999999999995" y="2263.24" as="targetPoint" />
            <Array as="points">
              <mxPoint x="95" y="2250" />
            </Array>
            <mxPoint as="offset" />
          </mxGeometry>
        </mxCell>
        <mxCell id="qSnqgkX1vYPYsh4ckFBg-7" value="controlador" style="shape=umlLifeline;perimeter=lifelinePerimeter;whiteSpace=wrap;html=1;container=1;collapsible=0;recursiveResize=0;outlineConnect=0;rounded=1;shadow=0;comic=0;labelBackgroundColor=none;strokeWidth=1;fontFamily=Verdana;fontSize=12;align=center;" parent="1" vertex="1">
          <mxGeometry x="490" y="40" width="100" height="2450" as="geometry" />
        </mxCell>
        <mxCell id="qSnqgkX1vYPYsh4ckFBg-8" value="" style="html=1;points=[];perimeter=orthogonalPerimeter;rounded=0;shadow=0;comic=0;labelBackgroundColor=none;strokeWidth=1;fontFamily=Verdana;fontSize=12;align=center;" parent="qSnqgkX1vYPYsh4ckFBg-7" vertex="1">
          <mxGeometry x="45" y="120" width="10" height="210" as="geometry" />
        </mxCell>
        <mxCell id="Yc9g9XgZ7PuEGC_O2gkt-1" value="validar datos" style="html=1;verticalAlign=bottom;endArrow=block;rounded=0;edgeStyle=elbowEdgeStyle;exitX=1.015;exitY=0.106;exitDx=0;exitDy=0;exitPerimeter=0;entryX=1.256;entryY=0.224;entryDx=0;entryDy=0;entryPerimeter=0;" parent="qSnqgkX1vYPYsh4ckFBg-7" target="qSnqgkX1vYPYsh4ckFBg-8" edge="1">
          <mxGeometry x="0.2116" y="35" width="80" relative="1" as="geometry">
            <mxPoint x="55" y="130.00000000000006" as="sourcePoint" />
            <mxPoint x="56.17999999999995" y="183.23999999999995" as="targetPoint" />
            <Array as="points">
              <mxPoint x="95" y="170" />
            </Array>
            <mxPoint as="offset" />
          </mxGeometry>
        </mxCell>
        <mxCell id="U1EN_e9b8ZYmKPW13B9b-4" value="OK 200" style="html=1;verticalAlign=bottom;endArrow=block;curved=0;rounded=0;" parent="qSnqgkX1vYPYsh4ckFBg-7" edge="1">
          <mxGeometry width="80" relative="1" as="geometry">
            <mxPoint x="39.5" y="330" as="sourcePoint" />
            <mxPoint x="-160" y="330" as="targetPoint" />
          </mxGeometry>
        </mxCell>
        <mxCell id="c6XgG6ySSTw-OyYYgiz0-8" value="" style="html=1;points=[];perimeter=orthogonalPerimeter;rounded=0;shadow=0;comic=0;labelBackgroundColor=none;strokeWidth=1;fontFamily=Verdana;fontSize=12;align=center;" parent="qSnqgkX1vYPYsh4ckFBg-7" vertex="1">
          <mxGeometry x="45" y="620" width="10" height="200" as="geometry" />
        </mxCell>
        <mxCell id="Hk00ESmYUxV_dqD9_Td8-2" value="validar datos" style="html=1;verticalAlign=bottom;endArrow=block;rounded=0;edgeStyle=elbowEdgeStyle;exitX=1.015;exitY=0.106;exitDx=0;exitDy=0;exitPerimeter=0;entryX=1.133;entryY=0.227;entryDx=0;entryDy=0;entryPerimeter=0;" parent="qSnqgkX1vYPYsh4ckFBg-7" edge="1">
          <mxGeometry x="0.2116" y="35" width="80" relative="1" as="geometry">
            <mxPoint x="55" y="630" as="sourcePoint" />
            <mxPoint x="56.17999999999995" y="683.24" as="targetPoint" />
            <Array as="points">
              <mxPoint x="95" y="670" />
            </Array>
            <mxPoint as="offset" />
          </mxGeometry>
        </mxCell>
        <mxCell id="Hk00ESmYUxV_dqD9_Td8-9" value="OK 200&lt;div&gt;response: id y data&lt;/div&gt;" style="html=1;verticalAlign=bottom;endArrow=block;curved=0;rounded=0;" parent="qSnqgkX1vYPYsh4ckFBg-7" edge="1">
          <mxGeometry width="80" relative="1" as="geometry">
            <mxPoint x="45" y="820" as="sourcePoint" />
            <mxPoint x="-160" y="820" as="targetPoint" />
          </mxGeometry>
        </mxCell>
        <mxCell id="0E8X6CepLbDXRwvv__vK-6" value="" style="html=1;points=[];perimeter=orthogonalPerimeter;rounded=0;shadow=0;comic=0;labelBackgroundColor=none;strokeWidth=1;fontFamily=Verdana;fontSize=12;align=center;" parent="qSnqgkX1vYPYsh4ckFBg-7" vertex="1">
          <mxGeometry x="45" y="870" width="10" height="110" as="geometry" />
        </mxCell>
        <mxCell id="0E8X6CepLbDXRwvv__vK-10" value="valida datos" style="html=1;verticalAlign=bottom;endArrow=block;rounded=0;edgeStyle=elbowEdgeStyle;exitX=1.198;exitY=0.271;exitDx=0;exitDy=0;exitPerimeter=0;" parent="qSnqgkX1vYPYsh4ckFBg-7" edge="1">
          <mxGeometry x="0.19" y="42" width="80" relative="1" as="geometry">
            <mxPoint x="55" y="879.9999999999999" as="sourcePoint" />
            <mxPoint x="55.01999999999998" y="903.09" as="targetPoint" />
            <Array as="points">
              <mxPoint x="88.01999999999998" y="893.09" />
            </Array>
            <mxPoint as="offset" />
          </mxGeometry>
        </mxCell>
        <mxCell id="20uPW2bGxjTTq03wj-o7-6" value="" style="html=1;points=[];perimeter=orthogonalPerimeter;rounded=0;shadow=0;comic=0;labelBackgroundColor=none;strokeWidth=1;fontFamily=Verdana;fontSize=12;align=center;" parent="qSnqgkX1vYPYsh4ckFBg-7" vertex="1">
          <mxGeometry x="45" y="1170" width="10" height="230" as="geometry" />
        </mxCell>
        <mxCell id="x1FIQMdPufeVAxIoaQDV-3" value="validar datos" style="html=1;verticalAlign=bottom;endArrow=block;rounded=0;edgeStyle=elbowEdgeStyle;exitX=1.198;exitY=0.271;exitDx=0;exitDy=0;exitPerimeter=0;" parent="qSnqgkX1vYPYsh4ckFBg-7" edge="1">
          <mxGeometry x="0.1846" y="42" width="80" relative="1" as="geometry">
            <mxPoint x="55" y="1180" as="sourcePoint" />
            <mxPoint x="55.01999999999998" y="1203.0900000000001" as="targetPoint" />
            <Array as="points">
              <mxPoint x="88.01999999999998" y="1193.0900000000001" />
            </Array>
            <mxPoint as="offset" />
          </mxGeometry>
        </mxCell>
        <mxCell id="x1FIQMdPufeVAxIoaQDV-8" value="OK 200&lt;div&gt;response: data&lt;/div&gt;" style="html=1;verticalAlign=bottom;endArrow=block;curved=0;rounded=0;" parent="qSnqgkX1vYPYsh4ckFBg-7" edge="1">
          <mxGeometry width="80" relative="1" as="geometry">
            <mxPoint x="37.5" y="1400" as="sourcePoint" />
            <mxPoint x="-160" y="1400" as="targetPoint" />
          </mxGeometry>
        </mxCell>
        <mxCell id="HzBQnUoR9m-qY79LxDmp-3" value="" style="html=1;points=[];perimeter=orthogonalPerimeter;rounded=0;shadow=0;comic=0;labelBackgroundColor=none;strokeWidth=1;fontFamily=Verdana;fontSize=12;align=center;" parent="qSnqgkX1vYPYsh4ckFBg-7" vertex="1">
          <mxGeometry x="45" y="1470" width="10" height="210" as="geometry" />
        </mxCell>
        <mxCell id="HzBQnUoR9m-qY79LxDmp-7" value="validar solicitud" style="html=1;verticalAlign=bottom;endArrow=block;rounded=0;edgeStyle=elbowEdgeStyle;exitX=1.198;exitY=0.271;exitDx=0;exitDy=0;exitPerimeter=0;" parent="qSnqgkX1vYPYsh4ckFBg-7" edge="1">
          <mxGeometry x="0.1846" y="42" width="80" relative="1" as="geometry">
            <mxPoint x="55" y="1480" as="sourcePoint" />
            <mxPoint x="55.01999999999998" y="1503.0900000000001" as="targetPoint" />
            <Array as="points">
              <mxPoint x="88.01999999999998" y="1520" />
            </Array>
            <mxPoint as="offset" />
          </mxGeometry>
        </mxCell>
        <mxCell id="HzBQnUoR9m-qY79LxDmp-11" value="OK 200&lt;div&gt;response: id y data&lt;/div&gt;" style="html=1;verticalAlign=bottom;endArrow=none;curved=0;rounded=0;startArrow=block;startFill=1;endFill=0;" parent="qSnqgkX1vYPYsh4ckFBg-7" edge="1">
          <mxGeometry width="80" relative="1" as="geometry">
            <mxPoint x="-160" y="1680" as="sourcePoint" />
            <mxPoint x="40" y="1680" as="targetPoint" />
          </mxGeometry>
        </mxCell>
        <mxCell id="HzBQnUoR9m-qY79LxDmp-19" value="" style="html=1;points=[];perimeter=orthogonalPerimeter;rounded=0;shadow=0;comic=0;labelBackgroundColor=none;strokeWidth=1;fontFamily=Verdana;fontSize=12;align=center;" parent="qSnqgkX1vYPYsh4ckFBg-7" vertex="1">
          <mxGeometry x="45" y="1840" width="10" height="190" as="geometry" />
        </mxCell>
        <mxCell id="PQzdDY-kdReBMIUdHJ6F-2" value="validar solicitud" style="html=1;verticalAlign=bottom;endArrow=block;rounded=0;edgeStyle=elbowEdgeStyle;exitX=1.198;exitY=0.271;exitDx=0;exitDy=0;exitPerimeter=0;" edge="1" parent="qSnqgkX1vYPYsh4ckFBg-7">
          <mxGeometry x="0.1846" y="42" width="80" relative="1" as="geometry">
            <mxPoint x="55" y="1850" as="sourcePoint" />
            <mxPoint x="55.01999999999998" y="1873.0900000000001" as="targetPoint" />
            <Array as="points">
              <mxPoint x="88.01999999999998" y="1890" />
            </Array>
            <mxPoint as="offset" />
          </mxGeometry>
        </mxCell>
        <mxCell id="PQzdDY-kdReBMIUdHJ6F-8" value="OK 200&lt;div&gt;response: id y data&lt;/div&gt;" style="html=1;verticalAlign=bottom;endArrow=none;curved=0;rounded=0;startArrow=block;startFill=1;endFill=0;" edge="1" parent="qSnqgkX1vYPYsh4ckFBg-7">
          <mxGeometry width="80" relative="1" as="geometry">
            <mxPoint x="-160" y="2030" as="sourcePoint" />
            <mxPoint x="40" y="2030" as="targetPoint" />
          </mxGeometry>
        </mxCell>
        <mxCell id="PQzdDY-kdReBMIUdHJ6F-12" value="PUT: Finalizar etapa planifacion plan" style="html=1;verticalAlign=bottom;endArrow=block;curved=0;rounded=0;" edge="1" parent="qSnqgkX1vYPYsh4ckFBg-7">
          <mxGeometry width="80" relative="1" as="geometry">
            <mxPoint x="-160" y="2108" as="sourcePoint" />
            <mxPoint x="40" y="2108" as="targetPoint" />
            <mxPoint as="offset" />
          </mxGeometry>
        </mxCell>
        <mxCell id="PQzdDY-kdReBMIUdHJ6F-15" value="" style="html=1;points=[];perimeter=orthogonalPerimeter;rounded=0;shadow=0;comic=0;labelBackgroundColor=none;strokeWidth=1;fontFamily=Verdana;fontSize=12;align=center;" vertex="1" parent="qSnqgkX1vYPYsh4ckFBg-7">
          <mxGeometry x="45" y="2110" width="10" height="260" as="geometry" />
        </mxCell>
        <mxCell id="PQzdDY-kdReBMIUdHJ6F-16" value="validar datos" style="html=1;verticalAlign=bottom;endArrow=block;rounded=0;edgeStyle=elbowEdgeStyle;exitX=1.015;exitY=0.106;exitDx=0;exitDy=0;exitPerimeter=0;entryX=1.256;entryY=0.224;entryDx=0;entryDy=0;entryPerimeter=0;" edge="1" parent="qSnqgkX1vYPYsh4ckFBg-7">
          <mxGeometry x="0.2116" y="35" width="80" relative="1" as="geometry">
            <mxPoint x="55" y="2120" as="sourcePoint" />
            <mxPoint x="57.559999999999945" y="2157.04" as="targetPoint" />
            <Array as="points">
              <mxPoint x="95" y="2160" />
            </Array>
            <mxPoint as="offset" />
          </mxGeometry>
        </mxCell>
        <mxCell id="PQzdDY-kdReBMIUdHJ6F-22" value="OK 200&lt;div&gt;response: id y data&lt;/div&gt;" style="html=1;verticalAlign=bottom;endArrow=none;curved=0;rounded=0;startArrow=block;startFill=1;endFill=0;" edge="1" parent="qSnqgkX1vYPYsh4ckFBg-7">
          <mxGeometry width="80" relative="1" as="geometry">
            <mxPoint x="-160" y="2369.17" as="sourcePoint" />
            <mxPoint x="40" y="2369.17" as="targetPoint" />
          </mxGeometry>
        </mxCell>
        <mxCell id="vwaSuC2wUnJQxN-R3TWK-4" value="click &quot;iniciar planificacion&quot;" style="html=1;verticalAlign=bottom;endArrow=block;curved=0;rounded=0;" parent="1" edge="1">
          <mxGeometry width="80" relative="1" as="geometry">
            <mxPoint x="100" y="140" as="sourcePoint" />
            <mxPoint x="310" y="140" as="targetPoint" />
          </mxGeometry>
        </mxCell>
        <mxCell id="vwaSuC2wUnJQxN-R3TWK-5" value="PUT: cambiar etapa plan" style="html=1;verticalAlign=bottom;endArrow=block;curved=0;rounded=0;" parent="1" edge="1">
          <mxGeometry width="80" relative="1" as="geometry">
            <mxPoint x="330" y="160" as="sourcePoint" />
            <mxPoint x="530" y="160" as="targetPoint" />
          </mxGeometry>
        </mxCell>
        <mxCell id="Yc9g9XgZ7PuEGC_O2gkt-2" value="" style="html=1;verticalAlign=bottom;endArrow=block;curved=0;rounded=0;" parent="1" edge="1">
          <mxGeometry width="80" relative="1" as="geometry">
            <mxPoint x="550" y="240" as="sourcePoint" />
            <mxPoint x="740" y="240" as="targetPoint" />
            <mxPoint as="offset" />
          </mxGeometry>
        </mxCell>
        <mxCell id="Yc9g9XgZ7PuEGC_O2gkt-3" value="ACTUALIZAR campo de plan" style="edgeLabel;html=1;align=center;verticalAlign=middle;resizable=0;points=[];" parent="Yc9g9XgZ7PuEGC_O2gkt-2" vertex="1" connectable="0">
          <mxGeometry x="-0.1096" relative="1" as="geometry">
            <mxPoint x="11" y="-10" as="offset" />
          </mxGeometry>
        </mxCell>
        <mxCell id="U1EN_e9b8ZYmKPW13B9b-1" value="&lt;font style=&quot;font-size: 11px;&quot;&gt;&lt;font style=&quot;font-size: 11px;&quot;&gt;-&lt;/font&gt;&lt;font style=&quot;font-size: 11px;&quot;&gt;plan&lt;/font&gt;&lt;/font&gt;&lt;div style=&quot;font-size: 11px;&quot;&gt;&lt;span style=&quot;background-color: rgb(255, 255, 255); font-family: Helvetica; text-align: center; text-wrap: nowrap;&quot;&gt;&lt;font style=&quot;font-size: 11px;&quot;&gt;&lt;span style=&quot;white-space: pre;&quot;&gt;&#x9;&lt;/span&gt;etapa: PLANIFICACION&lt;/font&gt;&lt;/span&gt;&lt;/div&gt;&lt;div style=&quot;font-size: 11px;&quot;&gt;&lt;span style=&quot;background-color: rgb(255, 255, 255); font-family: Helvetica; text-align: center; text-wrap: nowrap;&quot;&gt;&lt;font style=&quot;font-size: 11px;&quot;&gt;-cronograma&lt;/font&gt;&lt;/span&gt;&lt;/div&gt;&lt;div style=&quot;font-size: 11px;&quot;&gt;&lt;span style=&quot;background-color: rgb(255, 255, 255); font-family: Helvetica; text-align: center; text-wrap: nowrap;&quot;&gt;&lt;font style=&quot;font-size: 11px;&quot;&gt;&lt;span style=&quot;white-space: pre;&quot;&gt;&#x9;&lt;/span&gt;fecha_inicio_real: hoy&lt;/font&gt;&lt;/span&gt;&lt;/div&gt;&lt;div style=&quot;font-size: 11px;&quot;&gt;&lt;br&gt;&lt;/div&gt;&lt;div style=&quot;font-size: 11px;&quot;&gt;&lt;br&gt;&lt;/div&gt;" style="shape=note;whiteSpace=wrap;html=1;size=14;verticalAlign=top;align=left;spacingTop=-6;rounded=0;shadow=0;comic=0;labelBackgroundColor=none;strokeWidth=1;fontFamily=Verdana;fontSize=12" parent="1" vertex="1">
          <mxGeometry x="570" y="250" width="150" height="60" as="geometry" />
        </mxCell>
        <mxCell id="U1EN_e9b8ZYmKPW13B9b-2" value="&lt;font style=&quot;font-size: 11px;&quot;&gt;&lt;font style=&quot;font-size: 11px;&quot;&gt;-&lt;/font&gt;&lt;font style=&quot;font-size: 11px;&quot;&gt;plan&lt;/font&gt;&lt;/font&gt;&lt;div style=&quot;font-size: 11px;&quot;&gt;&lt;span style=&quot;white-space: pre;&quot;&gt;&#x9;&lt;/span&gt;id_plan&lt;br&gt;&lt;/div&gt;&lt;div style=&quot;font-size: 11px;&quot;&gt;&lt;br&gt;&lt;/div&gt;&lt;div style=&quot;font-size: 11px;&quot;&gt;&lt;br&gt;&lt;/div&gt;" style="shape=note;whiteSpace=wrap;html=1;size=14;verticalAlign=top;align=left;spacingTop=-6;rounded=0;shadow=0;comic=0;labelBackgroundColor=none;strokeWidth=1;fontFamily=Verdana;fontSize=12" parent="1" vertex="1">
          <mxGeometry x="360" y="170" width="90" height="40" as="geometry" />
        </mxCell>
        <mxCell id="U1EN_e9b8ZYmKPW13B9b-3" value="OK" style="html=1;verticalAlign=bottom;endArrow=block;curved=0;rounded=0;" parent="1" edge="1">
          <mxGeometry width="80" relative="1" as="geometry">
            <mxPoint x="740" y="340" as="sourcePoint" />
            <mxPoint x="550" y="340" as="targetPoint" />
          </mxGeometry>
        </mxCell>
        <mxCell id="W4eIDBoBjxrQyVlR3lF--1" value="mostrar actualizacion" style="html=1;verticalAlign=bottom;endArrow=block;curved=0;rounded=0;" parent="1" edge="1">
          <mxGeometry width="80" relative="1" as="geometry">
            <mxPoint x="310" y="390" as="sourcePoint" />
            <mxPoint x="100" y="390" as="targetPoint" />
            <Array as="points">
              <mxPoint x="280" y="390" />
            </Array>
          </mxGeometry>
        </mxCell>
        <mxCell id="c6XgG6ySSTw-OyYYgiz0-2" value="mostrar formulario modal" style="html=1;verticalAlign=bottom;endArrow=none;curved=0;rounded=0;endFill=0;startArrow=block;startFill=1;" parent="1" edge="1">
          <mxGeometry x="-0.0017" width="80" relative="1" as="geometry">
            <mxPoint x="99.99744186046517" y="480" as="sourcePoint" />
            <mxPoint x="310" y="480" as="targetPoint" />
            <mxPoint as="offset" />
          </mxGeometry>
        </mxCell>
        <mxCell id="Hk00ESmYUxV_dqD9_Td8-1" value="POST: crear actividad" style="html=1;verticalAlign=bottom;endArrow=block;curved=0;rounded=0;" parent="1" edge="1">
          <mxGeometry width="80" relative="1" as="geometry">
            <mxPoint x="330" y="660" as="sourcePoint" />
            <mxPoint x="530" y="660" as="targetPoint" />
            <mxPoint as="offset" />
          </mxGeometry>
        </mxCell>
        <mxCell id="Hk00ESmYUxV_dqD9_Td8-4" value="CREAR en tabla activades" style="html=1;verticalAlign=bottom;endArrow=block;curved=0;rounded=0;" parent="1" edge="1">
          <mxGeometry width="80" relative="1" as="geometry">
            <mxPoint x="550" y="750" as="sourcePoint" />
            <mxPoint x="740" y="750" as="targetPoint" />
          </mxGeometry>
        </mxCell>
        <mxCell id="Hk00ESmYUxV_dqD9_Td8-6" value="&lt;font style=&quot;font-size: 11px;&quot;&gt;&lt;font style=&quot;font-size: 11px;&quot;&gt;-actividades&lt;/font&gt;&lt;/font&gt;&lt;div style=&quot;font-size: 11px;&quot;&gt;&lt;span style=&quot;white-space: pre;&quot;&gt;&#x9;&lt;/span&gt;id_plan&lt;br&gt;&lt;/div&gt;&lt;div style=&quot;font-size: 11px;&quot;&gt;&lt;span style=&quot;white-space: pre;&quot;&gt;&#x9;&lt;/span&gt;titulo&lt;br&gt;&lt;/div&gt;&lt;div style=&quot;font-size: 11px;&quot;&gt;&lt;span style=&quot;white-space: pre;&quot;&gt;&#x9;&lt;/span&gt;riesgo&lt;br&gt;&lt;/div&gt;&lt;div style=&quot;font-size: 11px;&quot;&gt;&lt;br&gt;&lt;/div&gt;&lt;div style=&quot;font-size: 11px;&quot;&gt;&lt;br&gt;&lt;/div&gt;" style="shape=note;whiteSpace=wrap;html=1;size=14;verticalAlign=top;align=left;spacingTop=-6;rounded=0;shadow=0;comic=0;labelBackgroundColor=none;strokeWidth=1;fontFamily=Verdana;fontSize=12" parent="1" vertex="1">
          <mxGeometry x="380" y="670" width="90" height="60" as="geometry" />
        </mxCell>
        <mxCell id="Hk00ESmYUxV_dqD9_Td8-7" value="&lt;font style=&quot;font-size: 11px;&quot;&gt;&lt;font style=&quot;font-size: 11px;&quot;&gt;-&lt;/font&gt;&lt;font style=&quot;font-size: 11px;&quot;&gt;plan&lt;/font&gt;&lt;/font&gt;&lt;div style=&quot;font-size: 11px;&quot;&gt;&lt;span style=&quot;white-space: pre;&quot;&gt;&#x9;&lt;/span&gt;id_auditor&lt;br&gt;&lt;/div&gt;&lt;div style=&quot;font-size: 11px;&quot;&gt;&lt;br&gt;&lt;/div&gt;&lt;div style=&quot;font-size: 11px;&quot;&gt;&lt;br&gt;&lt;/div&gt;" style="shape=note;whiteSpace=wrap;html=1;size=14;verticalAlign=top;align=left;spacingTop=-6;rounded=0;shadow=0;comic=0;labelBackgroundColor=none;strokeWidth=1;fontFamily=Verdana;fontSize=12" parent="1" vertex="1">
          <mxGeometry x="600" y="760" width="100" height="40" as="geometry" />
        </mxCell>
        <mxCell id="Hk00ESmYUxV_dqD9_Td8-8" value="OK y DATA" style="html=1;verticalAlign=bottom;endArrow=block;curved=0;rounded=0;" parent="1" edge="1">
          <mxGeometry width="80" relative="1" as="geometry">
            <mxPoint x="745" y="820" as="sourcePoint" />
            <mxPoint x="555" y="820" as="targetPoint" />
          </mxGeometry>
        </mxCell>
        <mxCell id="0E8X6CepLbDXRwvv__vK-1" value="Mostrar actividad añadida" style="html=1;verticalAlign=bottom;endArrow=none;curved=0;rounded=0;startArrow=block;startFill=1;endFill=0;" parent="1" edge="1">
          <mxGeometry width="80" relative="1" as="geometry">
            <mxPoint x="100" y="880" as="sourcePoint" />
            <mxPoint x="310" y="880" as="targetPoint" />
          </mxGeometry>
        </mxCell>
        <mxCell id="0E8X6CepLbDXRwvv__vK-5" value="GET: obtener datos de actividad" style="html=1;verticalAlign=bottom;endArrow=block;curved=0;rounded=0;" parent="1" edge="1">
          <mxGeometry width="80" relative="1" as="geometry">
            <mxPoint x="330" y="910" as="sourcePoint" />
            <mxPoint x="530" y="910" as="targetPoint" />
            <mxPoint as="offset" />
          </mxGeometry>
        </mxCell>
        <mxCell id="0E8X6CepLbDXRwvv__vK-8" value="OBTENER actividad" style="html=1;verticalAlign=bottom;endArrow=block;curved=0;rounded=0;" parent="1" edge="1">
          <mxGeometry width="80" relative="1" as="geometry">
            <mxPoint x="550" y="970" as="sourcePoint" />
            <mxPoint x="740" y="970" as="targetPoint" />
          </mxGeometry>
        </mxCell>
        <mxCell id="0E8X6CepLbDXRwvv__vK-14" value="OK 200&lt;div&gt;response: data&lt;/div&gt;" style="html=1;verticalAlign=bottom;endArrow=block;curved=0;rounded=0;" parent="1" edge="1">
          <mxGeometry width="80" relative="1" as="geometry">
            <mxPoint x="527.5" y="1020" as="sourcePoint" />
            <mxPoint x="330" y="1020" as="targetPoint" />
          </mxGeometry>
        </mxCell>
        <mxCell id="0E8X6CepLbDXRwvv__vK-15" value="Redirigir a actividad" style="html=1;verticalAlign=bottom;endArrow=none;curved=0;rounded=0;startArrow=block;startFill=1;endFill=0;" parent="1" edge="1">
          <mxGeometry width="80" relative="1" as="geometry">
            <mxPoint x="100" y="1030" as="sourcePoint" />
            <mxPoint x="310" y="1030" as="targetPoint" />
          </mxGeometry>
        </mxCell>
        <mxCell id="0E8X6CepLbDXRwvv__vK-16" value="Click &quot;Crear auditoria&quot;" style="html=1;verticalAlign=bottom;endArrow=block;curved=0;rounded=0;" parent="1" edge="1">
          <mxGeometry width="80" relative="1" as="geometry">
            <mxPoint x="100" y="1060" as="sourcePoint" />
            <mxPoint x="310" y="1060" as="targetPoint" />
          </mxGeometry>
        </mxCell>
        <mxCell id="0E8X6CepLbDXRwvv__vK-18" value="Redirigir a pagina formulario" style="html=1;verticalAlign=bottom;endArrow=none;curved=0;rounded=0;startArrow=block;startFill=1;endFill=0;" parent="1" edge="1">
          <mxGeometry width="80" relative="1" as="geometry">
            <mxPoint x="100" y="1090" as="sourcePoint" />
            <mxPoint x="310" y="1090" as="targetPoint" />
          </mxGeometry>
        </mxCell>
        <mxCell id="20uPW2bGxjTTq03wj-o7-5" value="POST: crear auditoria" style="html=1;verticalAlign=bottom;endArrow=block;curved=0;rounded=0;" parent="1" edge="1">
          <mxGeometry width="80" relative="1" as="geometry">
            <mxPoint x="330" y="1210" as="sourcePoint" />
            <mxPoint x="530" y="1210" as="targetPoint" />
            <mxPoint as="offset" />
          </mxGeometry>
        </mxCell>
        <mxCell id="x1FIQMdPufeVAxIoaQDV-1" value="&lt;font style=&quot;font-size: 11px;&quot;&gt;&lt;font style=&quot;font-size: 11px;&quot;&gt;-auditoria*&lt;/font&gt;&lt;/font&gt;&lt;div style=&quot;font-size: 11px;&quot;&gt;&lt;span style=&quot;white-space: pre;&quot;&gt;&#x9;&lt;/span&gt;id_actividad&lt;br&gt;&lt;/div&gt;&lt;div style=&quot;font-size: 11px;&quot;&gt;&lt;span style=&quot;white-space: pre;&quot;&gt;&#x9;&lt;/span&gt;tipo&lt;br&gt;&lt;/div&gt;&lt;div style=&quot;font-size: 11px;&quot;&gt;&lt;span style=&quot;white-space: pre;&quot;&gt;&#x9;&lt;/span&gt;origen&lt;/div&gt;&lt;div style=&quot;font-size: 11px;&quot;&gt;&lt;span style=&quot;white-space: pre;&quot;&gt;&#x9;&lt;/span&gt;titulo&lt;br&gt;&lt;/div&gt;&lt;div style=&quot;font-size: 11px;&quot;&gt;&lt;span style=&quot;white-space: pre;&quot;&gt;&#x9;&lt;/span&gt;sucursal&lt;br&gt;&lt;/div&gt;&lt;div style=&quot;font-size: 11px;&quot;&gt;-cronograma&lt;/div&gt;&lt;div style=&quot;font-size: 11px;&quot;&gt;&lt;span style=&quot;white-space: pre;&quot;&gt;&#x9;&lt;/span&gt;f_inicio_plan&lt;br&gt;&lt;/div&gt;&lt;div style=&quot;font-size: 11px;&quot;&gt;&lt;span style=&quot;white-space: pre;&quot;&gt;&#x9;&lt;/span&gt;f_fin_plan&lt;br&gt;&lt;/div&gt;&lt;div style=&quot;font-size: 11px;&quot;&gt;- participantes&lt;/div&gt;&lt;div style=&quot;font-size: 11px;&quot;&gt;&lt;div style=&quot;font-size: 12px;&quot;&gt;&lt;span style=&quot;background-color: rgb(255, 255, 255); font-family: Helvetica; font-size: 11px; text-align: center; text-wrap: nowrap;&quot;&gt;&lt;span style=&quot;white-space-collapse: preserve;&quot;&gt;&#x9;&lt;/span&gt;rol: responsable &amp;gt; 0&lt;br&gt;&lt;/span&gt;&lt;/div&gt;&lt;div style=&quot;font-size: 12px;&quot;&gt;&lt;span style=&quot;background-color: rgb(255, 255, 255); font-family: Helvetica; font-size: 11px; text-align: center; text-wrap: nowrap;&quot;&gt;&lt;span style=&quot;white-space-collapse: preserve;&quot;&gt;&#x9;&lt;/span&gt;tipo: ejecutor&lt;/span&gt;&lt;/div&gt;&lt;/div&gt;&lt;div style=&quot;font-size: 11px;&quot;&gt;&lt;br&gt;&lt;/div&gt;&lt;div style=&quot;font-size: 11px;&quot;&gt;&lt;br&gt;&lt;/div&gt;&lt;div style=&quot;font-size: 11px;&quot;&gt;&lt;br&gt;&lt;/div&gt;" style="shape=note;whiteSpace=wrap;html=1;size=14;verticalAlign=top;align=left;spacingTop=-6;rounded=0;shadow=0;comic=0;labelBackgroundColor=none;strokeWidth=1;fontFamily=Verdana;fontSize=12" parent="1" vertex="1">
          <mxGeometry x="380" y="1220" width="130" height="180" as="geometry" />
        </mxCell>
        <mxCell id="x1FIQMdPufeVAxIoaQDV-5" value="&lt;font style=&quot;font-size: 11px;&quot;&gt;&lt;font style=&quot;font-size: 11px;&quot;&gt;-auditoria&lt;/font&gt;&lt;/font&gt;&lt;div style=&quot;font-size: 11px;&quot;&gt;&lt;span style=&quot;white-space: pre;&quot;&gt;&#x9;&lt;/span&gt;&lt;span style=&quot;background-color: initial;&quot;&gt;origen&lt;/span&gt;&lt;/div&gt;&lt;div style=&quot;font-size: 11px;&quot;&gt;&lt;span style=&quot;white-space: pre;&quot;&gt;&#x9;&lt;/span&gt;etapa:EN_DESARROLLO&lt;/div&gt;&lt;div style=&quot;font-size: 11px;&quot;&gt;&lt;br&gt;&lt;/div&gt;&lt;div style=&quot;font-size: 11px;&quot;&gt;&lt;span style=&quot;white-space: pre;&quot;&gt;&#x9;&lt;/span&gt;&lt;br&gt;&lt;/div&gt;&lt;div style=&quot;font-size: 11px;&quot;&gt;&lt;br&gt;&lt;/div&gt;&lt;div style=&quot;font-size: 11px;&quot;&gt;&lt;br&gt;&lt;/div&gt;&lt;div style=&quot;font-size: 11px;&quot;&gt;&lt;br&gt;&lt;/div&gt;" style="shape=note;whiteSpace=wrap;html=1;size=14;verticalAlign=top;align=left;spacingTop=-6;rounded=0;shadow=0;comic=0;labelBackgroundColor=none;strokeWidth=1;fontFamily=Verdana;fontSize=12" parent="1" vertex="1">
          <mxGeometry x="560" y="1300" width="170" height="50" as="geometry" />
        </mxCell>
        <mxCell id="x1FIQMdPufeVAxIoaQDV-7" value="OK y DATA" style="html=1;verticalAlign=bottom;endArrow=block;curved=0;rounded=0;" parent="1" edge="1">
          <mxGeometry width="80" relative="1" as="geometry">
            <mxPoint x="740" y="1370" as="sourcePoint" />
            <mxPoint x="550" y="1370" as="targetPoint" />
          </mxGeometry>
        </mxCell>
        <mxCell id="HzBQnUoR9m-qY79LxDmp-1" value="Confirmar creacion" style="html=1;verticalAlign=bottom;endArrow=block;curved=0;rounded=0;" parent="1" edge="1">
          <mxGeometry x="0.0011" width="80" relative="1" as="geometry">
            <mxPoint x="310" y="1460" as="sourcePoint" />
            <mxPoint x="100" y="1460" as="targetPoint" />
            <Array as="points">
              <mxPoint x="280" y="1460" />
            </Array>
            <mxPoint as="offset" />
          </mxGeometry>
        </mxCell>
        <mxCell id="HzBQnUoR9m-qY79LxDmp-2" value="Click &quot;Finalizar planificacion auditoria&quot;" style="html=1;verticalAlign=bottom;endArrow=block;curved=0;rounded=0;" parent="1" edge="1">
          <mxGeometry width="80" relative="1" as="geometry">
            <mxPoint x="100" y="1490" as="sourcePoint" />
            <mxPoint x="300" y="1490" as="targetPoint" />
          </mxGeometry>
        </mxCell>
        <mxCell id="HzBQnUoR9m-qY79LxDmp-4" value="GET: finalizar etapa desarrollo" style="html=1;verticalAlign=bottom;endArrow=block;curved=0;rounded=0;" parent="1" edge="1">
          <mxGeometry width="80" relative="1" as="geometry">
            <mxPoint x="330" y="1510" as="sourcePoint" />
            <mxPoint x="530" y="1510" as="targetPoint" />
          </mxGeometry>
        </mxCell>
        <mxCell id="HzBQnUoR9m-qY79LxDmp-9" value="&lt;font style=&quot;font-size: 11px;&quot;&gt;&lt;font style=&quot;font-size: 11px;&quot;&gt;-&lt;/font&gt;&lt;font style=&quot;font-size: 11px;&quot;&gt;plan: actualizar&lt;/font&gt;&lt;/font&gt;&lt;div style=&quot;font-size: 11px;&quot;&gt;&lt;span style=&quot;background-color: rgb(255, 255, 255); font-family: Helvetica; text-align: center; text-wrap: nowrap;&quot;&gt;&lt;font style=&quot;font-size: 11px;&quot;&gt;&lt;span style=&quot;white-space: pre;&quot;&gt;&#x9;&lt;/span&gt;apro_plan: id_aprobacion&lt;/font&gt;&lt;/span&gt;&lt;/div&gt;&lt;div style=&quot;font-size: 11px;&quot;&gt;&lt;span style=&quot;background-color: rgb(255, 255, 255); font-family: Helvetica; text-align: center; text-wrap: nowrap;&quot;&gt;&lt;font style=&quot;font-size: 11px;&quot;&gt;-aprobacion: crear&lt;/font&gt;&lt;/span&gt;&lt;/div&gt;&lt;div style=&quot;font-size: 11px;&quot;&gt;&lt;span style=&quot;background-color: rgb(255, 255, 255); font-family: Helvetica; text-align: center; text-wrap: nowrap;&quot;&gt;&lt;font style=&quot;font-size: 11px;&quot;&gt;&lt;span style=&quot;white-space: pre;&quot;&gt;&#x9;&lt;/span&gt;tipo: planificacion&lt;/font&gt;&lt;/span&gt;&lt;/div&gt;&lt;div style=&quot;font-size: 11px;&quot;&gt;&lt;br&gt;&lt;/div&gt;&lt;div style=&quot;font-size: 11px;&quot;&gt;&lt;br&gt;&lt;/div&gt;" style="shape=note;whiteSpace=wrap;html=1;size=14;verticalAlign=top;align=left;spacingTop=-6;rounded=0;shadow=0;comic=0;labelBackgroundColor=none;strokeWidth=1;fontFamily=Verdana;fontSize=12" parent="1" vertex="1">
          <mxGeometry x="570" y="1600" width="160" height="60" as="geometry" />
        </mxCell>
        <mxCell id="HzBQnUoR9m-qY79LxDmp-12" value="Mostar boton de checks" style="html=1;verticalAlign=bottom;endArrow=none;curved=0;rounded=0;startArrow=classicThin;startFill=1;endFill=0;" parent="1" edge="1">
          <mxGeometry width="80" relative="1" as="geometry">
            <mxPoint x="100" y="1750" as="sourcePoint" />
            <mxPoint x="310" y="1750" as="targetPoint" />
          </mxGeometry>
        </mxCell>
        <mxCell id="HzBQnUoR9m-qY79LxDmp-16" value="Click &quot;Enviar Check y Forzar&quot;" style="html=1;verticalAlign=bottom;endArrow=block;curved=0;rounded=0;" parent="1" edge="1">
          <mxGeometry width="80" relative="1" as="geometry">
            <mxPoint x="100" y="1860" as="sourcePoint" />
            <mxPoint x="310" y="1860" as="targetPoint" />
            <mxPoint as="offset" />
          </mxGeometry>
        </mxCell>
        <mxCell id="HzBQnUoR9m-qY79LxDmp-18" value="POST: crear check" style="html=1;verticalAlign=bottom;endArrow=block;curved=0;rounded=0;" parent="1" edge="1">
          <mxGeometry width="80" relative="1" as="geometry">
            <mxPoint x="330" y="1880" as="sourcePoint" />
            <mxPoint x="530" y="1880" as="targetPoint" />
            <mxPoint as="offset" />
          </mxGeometry>
        </mxCell>
        <mxCell id="HzBQnUoR9m-qY79LxDmp-23" value="&lt;font style=&quot;font-size: 11px;&quot;&gt;&lt;font style=&quot;font-size: 11px;&quot;&gt;-checks&lt;/font&gt;&lt;/font&gt;&lt;div style=&quot;font-size: 11px;&quot;&gt;&lt;span style=&quot;white-space: pre;&quot;&gt;&#x9;&lt;/span&gt;check&lt;br&gt;&lt;/div&gt;&lt;div style=&quot;font-size: 11px;&quot;&gt;&lt;span style=&quot;white-space: pre;&quot;&gt;&#x9;&lt;/span&gt;comentario&lt;/div&gt;&lt;div style=&quot;font-size: 11px;&quot;&gt;&lt;br&gt;&lt;/div&gt;&lt;div style=&quot;font-size: 11px;&quot;&gt;&lt;br&gt;&lt;/div&gt;" style="shape=note;whiteSpace=wrap;html=1;size=14;verticalAlign=top;align=left;spacingTop=-6;rounded=0;shadow=0;comic=0;labelBackgroundColor=none;strokeWidth=1;fontFamily=Verdana;fontSize=12" parent="1" vertex="1">
          <mxGeometry x="380" y="1890" width="110" height="50" as="geometry" />
        </mxCell>
        <mxCell id="PQzdDY-kdReBMIUdHJ6F-6" value="&lt;font style=&quot;font-size: 11px;&quot;&gt;&lt;font style=&quot;font-size: 11px;&quot;&gt;-aprobacion&lt;/font&gt;&lt;/font&gt;&lt;div style=&quot;&quot;&gt;&lt;span style=&quot;font-size: 11px; white-space: pre;&quot;&gt;&#x9;&lt;/span&gt;&lt;span style=&quot;font-size: 11px;&quot;&gt;aprobacion:&lt;/span&gt;&lt;/div&gt;&lt;div style=&quot;&quot;&gt;&lt;span style=&quot;background-color: rgb(255, 255, 255); color: rgb(13, 13, 13); font-family: Söhne, ui-sans-serif, system-ui, -apple-system, &amp;quot;Segoe UI&amp;quot;, Roboto, Ubuntu, Cantarell, &amp;quot;Noto Sans&amp;quot;, sans-serif, &amp;quot;Helvetica Neue&amp;quot;, Arial, &amp;quot;Apple Color Emoji&amp;quot;, &amp;quot;Segoe UI Emoji&amp;quot;, &amp;quot;Segoe UI Symbol&amp;quot;, &amp;quot;Noto Color Emoji&amp;quot;; font-size: 11px; white-space-collapse: preserve;&quot;&gt;&lt;span style=&quot;white-space: pre;&quot;&gt;&#x9;&lt;/span&gt;&lt;span style=&quot;white-space: pre;&quot;&gt;&#x9;&lt;/span&gt;APROBACION_JUST&lt;/span&gt;&lt;/div&gt;&lt;div style=&quot;font-size: 11px;&quot;&gt;&lt;span style=&quot;white-space: pre;&quot;&gt;&#x9;&lt;/span&gt;checks: id_check&lt;/div&gt;&lt;div style=&quot;font-size: 11px;&quot;&gt;&lt;br&gt;&lt;/div&gt;&lt;div style=&quot;font-size: 11px;&quot;&gt;&lt;br&gt;&lt;/div&gt;" style="shape=note;whiteSpace=wrap;html=1;size=14;verticalAlign=top;align=left;spacingTop=-6;rounded=0;shadow=0;comic=0;labelBackgroundColor=none;strokeWidth=1;fontFamily=Verdana;fontSize=12" vertex="1" parent="1">
          <mxGeometry x="560" y="1960" width="170" height="70" as="geometry" />
        </mxCell>
        <mxCell id="PQzdDY-kdReBMIUdHJ6F-7" value="OK y DATA" style="html=1;verticalAlign=bottom;endArrow=block;curved=0;rounded=0;" edge="1" parent="1">
          <mxGeometry width="80" relative="1" as="geometry">
            <mxPoint x="740" y="2050" as="sourcePoint" />
            <mxPoint x="550" y="2050" as="targetPoint" />
          </mxGeometry>
        </mxCell>
        <mxCell id="PQzdDY-kdReBMIUdHJ6F-9" value="Confirmar aprobacion&lt;div&gt;y fin de planificacion&lt;/div&gt;" style="html=1;verticalAlign=bottom;endArrow=none;curved=0;rounded=0;startArrow=classicThin;startFill=1;endFill=0;" edge="1" parent="1">
          <mxGeometry width="80" relative="1" as="geometry">
            <mxPoint x="100" y="2100" as="sourcePoint" />
            <mxPoint x="310" y="2100" as="targetPoint" />
            <mxPoint as="offset" />
          </mxGeometry>
        </mxCell>
        <mxCell id="PQzdDY-kdReBMIUdHJ6F-10" value="click &quot;Finalizar planificacion de plan&quot;" style="html=1;verticalAlign=bottom;endArrow=block;curved=0;rounded=0;" edge="1" parent="1">
          <mxGeometry width="80" relative="1" as="geometry">
            <mxPoint x="100" y="2130" as="sourcePoint" />
            <mxPoint x="310" y="2130" as="targetPoint" />
          </mxGeometry>
        </mxCell>
        <mxCell id="PQzdDY-kdReBMIUdHJ6F-19" value="&lt;font style=&quot;font-size: 11px;&quot;&gt;&lt;font style=&quot;font-size: 11px;&quot;&gt;-&lt;/font&gt;&lt;font style=&quot;font-size: 11px;&quot;&gt;plan&lt;/font&gt;&lt;/font&gt;&lt;div style=&quot;font-size: 11px;&quot;&gt;&lt;span style=&quot;background-color: rgb(255, 255, 255); font-family: Helvetica; text-align: center; text-wrap: nowrap;&quot;&gt;&lt;font style=&quot;font-size: 11px;&quot;&gt;&lt;span style=&quot;white-space: pre;&quot;&gt;&#x9;&lt;/span&gt;etapa: EJECUCION&lt;/font&gt;&lt;/span&gt;&lt;/div&gt;&lt;div style=&quot;font-size: 11px;&quot;&gt;&lt;span style=&quot;background-color: rgb(255, 255, 255); font-family: Helvetica; text-align: center; text-wrap: nowrap;&quot;&gt;&lt;font style=&quot;font-size: 11px;&quot;&gt;-cronograma&lt;/font&gt;&lt;/span&gt;&lt;/div&gt;&lt;div style=&quot;font-size: 11px;&quot;&gt;&lt;span style=&quot;background-color: rgb(255, 255, 255); font-family: Helvetica; text-align: center; text-wrap: nowrap;&quot;&gt;&lt;font style=&quot;font-size: 11px;&quot;&gt;&lt;span style=&quot;white-space: pre;&quot;&gt;&#x9;&lt;/span&gt;fecha_fin_real: hoy&lt;/font&gt;&lt;/span&gt;&lt;/div&gt;&lt;div style=&quot;font-size: 11px;&quot;&gt;&lt;span style=&quot;background-color: rgb(255, 255, 255); font-family: Helvetica; text-align: center; text-wrap: nowrap;&quot;&gt;&lt;font style=&quot;font-size: 11px;&quot;&gt;-auditorias:&lt;/font&gt;&lt;/span&gt;&lt;/div&gt;&lt;div style=&quot;font-size: 11px;&quot;&gt;&lt;span style=&quot;background-color: rgb(255, 255, 255); font-family: Helvetica; text-align: center; text-wrap: nowrap;&quot;&gt;&lt;font style=&quot;font-size: 11px;&quot;&gt;&lt;span style=&quot;white-space: pre;&quot;&gt;&#x9;&lt;/span&gt;etapa: NULL&lt;br&gt;&lt;/font&gt;&lt;/span&gt;&lt;/div&gt;&lt;div style=&quot;font-size: 11px;&quot;&gt;&lt;br&gt;&lt;/div&gt;&lt;div style=&quot;font-size: 11px;&quot;&gt;&lt;br&gt;&lt;/div&gt;" style="shape=note;whiteSpace=wrap;html=1;size=14;verticalAlign=top;align=left;spacingTop=-6;rounded=0;shadow=0;comic=0;labelBackgroundColor=none;strokeWidth=1;fontFamily=Verdana;fontSize=12" vertex="1" parent="1">
          <mxGeometry x="570" y="2240" width="150" height="90" as="geometry" />
        </mxCell>
        <mxCell id="PQzdDY-kdReBMIUdHJ6F-20" value="OK" style="html=1;verticalAlign=bottom;endArrow=block;curved=0;rounded=0;" edge="1" parent="1">
          <mxGeometry width="80" relative="1" as="geometry">
            <mxPoint x="740" y="2360" as="sourcePoint" />
            <mxPoint x="550" y="2360" as="targetPoint" />
          </mxGeometry>
        </mxCell>
        <mxCell id="PQzdDY-kdReBMIUdHJ6F-17" value="" style="html=1;verticalAlign=bottom;endArrow=block;curved=0;rounded=0;" edge="1" parent="1">
          <mxGeometry width="80" relative="1" as="geometry">
            <mxPoint x="550" y="2230" as="sourcePoint" />
            <mxPoint x="740" y="2230" as="targetPoint" />
            <mxPoint as="offset" />
          </mxGeometry>
        </mxCell>
        <mxCell id="PQzdDY-kdReBMIUdHJ6F-18" value="ACTUALIZAR campo de plan y auditoria" style="edgeLabel;html=1;align=center;verticalAlign=middle;resizable=0;points=[];" vertex="1" connectable="0" parent="PQzdDY-kdReBMIUdHJ6F-17">
          <mxGeometry x="-0.1096" relative="1" as="geometry">
            <mxPoint x="11" y="-10" as="offset" />
          </mxGeometry>
        </mxCell>
        <mxCell id="PQzdDY-kdReBMIUdHJ6F-23" value="Confirmar aprobacion&lt;div&gt;y fin de planificacion de plan&lt;/div&gt;" style="html=1;verticalAlign=bottom;endArrow=none;curved=0;rounded=0;startArrow=classicThin;startFill=1;endFill=0;" edge="1" parent="1">
          <mxGeometry width="80" relative="1" as="geometry">
            <mxPoint x="100" y="2430" as="sourcePoint" />
            <mxPoint x="310" y="2430" as="targetPoint" />
            <mxPoint as="offset" />
          </mxGeometry>
        </mxCell>
      </root>
    </mxGraphModel>
  </diagram>
</mxfile>
